PathFileType	4	(X/Y/Z)
DataRate	CameraRate	NumFrames	NumMarkers	Units	OrigDataRate	OrigDataStartFrame	OrigNumFrames	
  100.0	  100.0	    5	     56	     mm	  100.0	      159	    317
Frame#	Time	LASI			RASI			LPSI			RPSI			RTH1			RTH2			RTH3			RLFC			RMFC			LTH1			LTH2			LTH3			LLFC			LMFC			RTB1			RTB2			RTB3			RLMAL			RMMAL			LTB1			LTB2			LTB3			LMMAL			LLMAL			RCAL			RTOE			RMT5			LCAL			LTOE			LMT5			LACR			RACR			CLAV			C7			LASH			LPSH			RASH			RPSH			RUA1			RUA2			RUA3			RLEL			RMEL			LUA1			LUA2			LUA3			LLEL			LMEL			RFAsuperior			RFAradius			RFAulna			LFAsuperior			LFAradius			LFAulna			RHJC			LHJC			
		X1	Y1	Z1	X2	Y2	Z2	X3	Y3	Z3	X4	Y4	Z4	X5	Y5	Z5	X6	Y6	Z6	X7	Y7	Z7	X8	Y8	Z8	X9	Y9	Z9	X10	Y10	Z10	X11	Y11	Z11	X12	Y12	Z12	X13	Y13	Z13	X14	Y14	Z14	X15	Y15	Z15	X16	Y16	Z16	X17	Y17	Z17	X18	Y18	Z18	X19	Y19	Z19	X20	Y20	Z20	X21	Y21	Z21	X22	Y22	Z22	X23	Y23	Z23	X24	Y24	Z24	X25	Y25	Z25	X26	Y26	Z26	X27	Y27	Z27	X28	Y28	Z28	X29	Y29	Z29	X30	Y30	Z30	X31	Y31	Z31	X32	Y32	Z32	X33	Y33	Z33	X34	Y34	Z34	X35	Y35	Z35	X36	Y36	Z36	X37	Y37	Z37	X38	Y38	Z38	X39	Y39	Z39	X40	Y40	Z40	X41	Y41	Z41	X42	Y42	Z42	X43	Y43	Z43	X44	Y44	Z44	X45	Y45	Z45	X46	Y46	Z46	X47	Y47	Z47	X48	Y48	Z48	X49	Y49	Z49	X50	Y50	Z50	X51	Y51	Z51	X52	Y52	Z52	X53	Y53	Z53	X54	Y54	Z54	X55	Y55	Z55	X56	Y56	Z56	

231	2.31000	770.79794	1033.18878	-419.77870	511.84931	1034.72067	-436.89441	701.29478	1085.48124	-595.29986	607.19455	1083.44523	-605.59747	442.30643	871.78786	-502.96747	433.11886	771.85107	-473.05269	437.14919	637.57361	-546.17491	431.25799	520.16840	-525.35403	547.57231	512.44652	-497.31506	841.51676	896.89406	-516.26183	850.70155	767.53094	-464.58484	845.98846	652.56081	-549.94276	850.55815	492.05345	-552.45506	735.92009	474.42557	-529.83459	452.07791	369.12957	-493.87224	402.74212	276.73987	-553.98613	448.48183	193.99507	-520.93372	399.62797	122.08011	-578.94874	486.62551	128.33787	-541.72720	829.91112	364.64243	-512.27135	871.15201	312.72706	-560.82217	835.74275	226.44537	-529.46011	789.30446	133.70233	-543.02980	874.31674	126.73253	-579.28894	454.79686	103.41757	-642.64328	422.90954	78.96680	-408.37090	352.03520	59.13511	-437.57641	803.20422	103.00839	-640.45183	860.98730	77.67969	-403.41825	934.54035	58.74351	-454.86668	786.98240	1573.64072	-538.70218	477.65604	1555.50467	-564.69744	594.77737	1510.39494	-478.05421	634.85140	1576.61297	-595.87216	760.00311	1526.60200	-460.99796	820.24933	1503.68778	-597.63254	506.80796	1511.76248	-492.79742	454.05780	1501.67800	-619.60560	345.45036	1519.87491	-547.69813	321.40514	1468.12724	-574.20184	265.23775	1493.49859	-523.51695	185.21554	1484.44356	-494.38416	207.31619	1396.32110	-490.34021	909.42107	1523.00904	-529.56021	943.21421	1441.86496	-539.10245	1008.25782	1476.71930	-480.44280	1073.87645	1457.95413	-452.37685	1042.23219	1372.68127	-440.22175	195.85088	1503.69268	-404.40616	199.81343	1486.49345	-220.95071	132.08540	1502.50035	-240.32161	1079.71433	1479.37028	-363.80582	1045.88996	1467.44462	-180.57960	1117.38460	1472.28908	-185.58385	551.10090	946.05759	-515.82994	752.93515	934.42867	-501.20054	
232	2.32000	770.78709	1033.15773	-419.72357	511.82921	1034.68488	-436.84952	701.27927	1085.49357	-595.21875	607.18282	1083.45851	-605.53860	442.29558	871.78440	-502.94027	433.11010	771.84090	-473.03874	437.12624	637.58780	-546.14319	431.25070	520.16280	-525.33954	547.56649	512.44106	-497.29892	841.50791	896.89223	-516.22324	850.69176	767.52095	-464.56071	845.96627	652.56091	-549.92287	850.54255	492.05026	-552.41988	735.89479	474.43132	-529.77337	452.07880	369.14782	-493.84113	402.73420	276.74099	-553.96874	448.47721	193.99554	-520.92645	399.62099	122.07518	-578.93874	486.63448	128.35053	-541.74469	829.90251	364.64315	-512.25380	871.14709	312.72394	-560.80224	835.73625	226.44289	-529.43666	789.31039	133.69834	-543.03502	874.36902	126.81270	-579.46521	454.78898	103.41012	-642.63421	422.91258	78.97725	-408.36201	352.03120	59.13302	-437.57078	803.18408	102.99261	-640.41492	860.98279	77.67282	-403.39884	934.53749	58.73300	-454.84359	787.02797	1573.60772	-538.54978	477.64907	1555.57998	-564.77072	594.80321	1510.34508	-477.98474	634.91515	1576.61572	-595.74101	760.03914	1526.55421	-460.85650	820.28006	1503.65963	-597.50371	506.83582	1511.79347	-492.64999	454.07269	1501.75775	-619.48082	345.49877	1519.89781	-547.60923	321.42734	1468.13327	-574.04913	265.26869	1493.51581	-523.44275	185.24163	1484.43732	-494.32926	207.29920	1396.32217	-490.22188	909.47051	1522.92978	-529.46416	943.23577	1441.80726	-538.95011	1008.27911	1476.64801	-480.29388	1073.89625	1457.87565	-452.20015	1042.24220	1372.60823	-440.07099	195.87769	1503.70957	-404.32357	199.77676	1486.52219	-220.86881	132.04513	1502.50069	-240.27186	1079.73134	1479.28165	-363.64918	1045.88616	1467.35970	-180.42107	1117.39416	1472.18378	-185.43572	551.09105	946.04402	-515.80450	752.92542	934.41928	-501.17320	
233	2.33000	770.78004	1033.12333	-419.66589	511.81378	1034.65788	-436.79876	701.25304	1085.51012	-595.12498	607.15034	1083.48016	-605.45595	442.28385	871.77743	-502.90278	433.10586	771.83255	-473.02120	437.06520	637.59504	-546.07693	431.24961	520.15575	-525.33382	547.56686	512.43413	-497.29155	841.48793	896.88784	-516.18313	850.67268	767.51220	-464.52804	845.91746	652.55673	-549.85083	850.51949	492.04989	-552.39302	735.84474	474.45434	-529.65396	452.08174	369.17110	-493.80558	402.72714	276.73906	-553.95426	448.47282	193.99506	-520.92142	399.61673	122.07254	-578.93092	486.63234	128.35774	-541.74699	829.89236	364.64610	-512.24084	871.13946	312.72285	-560.78786	835.72642	226.44245	-529.41235	789.31259	133.69421	-543.03237	874.38788	126.84523	-579.53134	454.77544	103.40389	-642.62273	422.91725	78.98987	-408.35336	352.02574	59.13244	-437.56404	803.16003	102.98122	-640.38093	860.97350	77.66499	-403.37370	934.53356	58.72634	-454.83084	787.06375	1573.59039	-538.38582	477.66337	1555.64052	-564.73018	594.82952	1510.36147	-477.84037	634.96791	1576.62535	-595.59880	760.07416	1526.51234	-460.71474	820.31016	1503.63601	-597.34995	506.86928	1511.82579	-492.49410	454.08983	1501.81966	-619.37527	345.51625	1519.92451	-547.50311	321.45106	1468.14312	-573.88739	265.29506	1493.53251	-523.35343	185.26429	1484.43785	-494.25695	207.31837	1396.31428	-490.15061	909.49356	1522.87781	-529.29722	943.25800	1441.75539	-538.79148	1008.29930	1476.58144	-480.13554	1073.91017	1457.80366	-452.02227	1042.25428	1372.54071	-439.93003	195.89619	1503.72820	-404.25680	199.74011	1486.55350	-220.79860	131.99199	1502.49947	-240.21605	1079.74907	1479.18498	-363.48366	1045.88120	1467.26830	-180.28524	1117.39457	1472.10776	-185.23464	551.07381	946.03696	-515.76404	752.90996	934.41293	-501.15445	
234	2.34000	770.77459	1033.09175	-419.61051	511.79346	1034.63901	-436.75353	701.22122	1085.53266	-595.02292	607.10166	1083.51465	-605.35202	442.27521	871.76576	-502.86402	433.10320	771.82390	-472.99392	436.99358	637.60071	-546.00937	431.25138	520.14881	-525.33659	547.57009	512.42734	-497.29266	841.46022	896.88053	-516.14911	850.64089	767.50314	-464.48782	845.84812	652.54840	-549.73686	850.49197	492.05426	-552.38305	735.78502	474.48408	-529.52719	452.08066	369.18359	-493.78610	402.72438	276.73649	-553.95035	448.47026	193.99419	-520.92071	399.61800	122.07554	-578.93138	486.61659	128.35605	-541.72744	829.88490	364.64857	-512.23897	871.13066	312.72404	-560.78672	835.71614	226.44558	-529.39889	789.31099	133.69324	-543.02146	874.36540	126.80667	-579.44598	454.76485	103.40599	-642.61486	422.92235	78.99830	-408.34779	352.01977	59.13348	-437.55991	803.14495	102.98424	-640.37185	860.96901	77.66507	-403.37437	934.52919	58.72792	-454.84476	787.09239	1573.57709	-538.21542	477.69529	1555.67323	-564.58313	594.85995	1510.40703	-477.66841	635.00282	1576.64284	-595.44390	760.10812	1526.48363	-460.58375	820.33973	1503.61594	-597.18181	506.92291	1511.83953	-492.33310	454.11045	1501.85379	-619.28227	345.51079	1519.94503	-547.40011	321.46988	1468.15237	-573.72611	265.31339	1493.54955	-523.25340	185.28014	1484.45611	-494.17696	207.38477	1396.29643	-490.15144	909.49751	1522.85770	-529.08592	943.28005	1441.71465	-538.63811	1008.31582	1476.52255	-479.97094	1073.92391	1457.73493	-451.86743	1042.26431	1372.47508	-439.79656	195.89601	1503.74576	-404.20892	199.70692	1486.58842	-220.74352	131.94126	1502.50849	-240.16105	1079.76135	1479.09124	-363.32313	1045.87426	1467.17394	-180.17453	1117.39174	1472.02084	-185.05051	551.05040	946.03820	-515.72227	752.88908	934.41415	-501.14436	
235	2.35000	770.76480	1033.06439	-419.55999	511.76605	1034.62468	-436.71182	701.18863	1085.56014	-594.91860	607.05124	1083.55596	-605.24587	442.26837	871.75005	-502.83002	433.10404	771.81003	-472.95140	436.93623	637.61230	-545.95904	431.24979	520.14444	-525.33672	547.56995	512.42316	-497.29109	841.43083	896.87172	-516.12049	850.60205	767.49097	-464.44606	845.77215	652.53824	-549.60938	850.46192	492.06094	-552.38225	735.73711	474.50466	-529.44714	452.07486	369.17960	-493.78452	402.72208	276.73516	-553.94815	448.47005	193.99363	-520.92202	399.62297	122.08097	-578.93537	486.59492	128.35010	-541.69803	829.88198	364.64874	-512.24410	871.12006	312.72643	-560.79206	835.70854	226.44832	-529.39645	789.31021	133.69713	-543.00436	874.33861	126.74683	-579.32781	454.76085	103.41505	-642.61245	422.92614	79.00061	-408.34524	352.01235	59.13659	-437.55801	803.14630	103.00428	-640.39470	860.96955	77.67106	-403.38319	934.52413	58.73317	-454.87583	787.11991	1573.55739	-538.04246	477.72078	1555.70972	-564.46098	594.89054	1510.44126	-477.52140	635.02345	1576.66287	-595.28146	760.13989	1526.46521	-460.45449	820.36304	1503.59463	-597.01452	506.98945	1511.82702	-492.18230	454.12900	1501.86425	-619.18202	345.49710	1519.95801	-547.32046	321.47871	1468.15414	-573.57048	265.32129	1493.56226	-523.15218	185.28962	1484.48482	-494.10780	207.44979	1396.28122	-490.13983	909.49316	1522.85803	-528.85973	943.29846	1441.68376	-538.49974	1008.32704	1476.46884	-479.79802	1073.93947	1457.66656	-451.73165	1042.27311	1372.40659	-439.67444	195.87792	1503.76193	-404.16356	199.66542	1486.63239	-220.68663	131.89867	1502.53221	-240.11288	1079.75682	1479.01822	-363.18039	1045.86952	1467.09076	-180.05900	1117.39418	1471.91448	-184.90188	551.02260	946.04578	-515.68688	752.86329	934.41961	-501.13574	
